<svg xmlns="http://www.w3.org/2000/svg" class="ionicon" viewBox="0 0 512 512"><title>Logo Linkedin</title><path d="M 444.17 32 H 70.28 C 49.85 32 32 46.7 32 66.89 v 374.72 C 32 461.91 49.85 480 70.28 480 h 373.78 c 20.54 0 35.94 -18.21 35.94 -38.39 V 66.89 C 480.12 46.7 464.6 32 444.17 32 Z m -273.3 373.43 h -64.18 V 205.88 h 64.18 Z M 141 175.54 h -0.46 c -20.54 0 -33.84 -15.29 -33.84 -34.43 c 0 -19.49 13.65 -34.42 34.65 -34.42 s 33.85 14.82 34.31 34.42 c -0.01 19.14 -13.31 34.43 -34.66 34.43 Z m 264.43 229.89 h -64.18 V 296.32 c 0 -26.14 -9.34 -44 -32.56 -44 c -17.74 0 -28.24 12 -32.91 23.69 c -1.75 4.2 -2.22 9.92 -2.22 15.76 v 113.66 h -64.18 V 205.88 h 64.18 v 27.77 c 9.34 -13.3 23.93 -32.44 57.88 -32.44 c 42.13 0 74 27.77 74 87.64 Z"/></svg>